<svg width="141" height="44" viewBox="0 0 141 44" fill="none" xmlns="http://www.w3.org/2000/svg">
<path d="M118.586 41.7414V13.1575H123.95V17.1424L123.452 15.9929C124.142 14.9456 125.074 14.1409 126.249 13.5789C127.45 12.9914 128.816 12.6977 130.349 12.6977C132.341 12.6977 134.142 13.183 135.751 14.1537C137.36 15.1244 138.637 16.4399 139.583 18.1003C140.528 19.7351 141 21.5743 141 23.6178C141 25.6358 140.528 27.475 139.583 29.1353C138.663 30.7957 137.399 32.1112 135.789 33.0819C134.18 34.0526 132.354 34.5379 130.311 34.5379C128.88 34.5379 127.552 34.2825 126.326 33.7716C125.125 33.2352 124.155 32.4561 123.414 31.4343L124.334 30.2465V41.7414H118.586ZM129.621 29.3652C130.694 29.3652 131.639 29.1226 132.456 28.6372C133.273 28.1519 133.912 27.475 134.372 26.6065C134.832 25.738 135.061 24.7417 135.061 23.6178C135.061 22.4939 134.832 21.5104 134.372 20.6674C133.912 19.7989 133.273 19.122 132.456 18.6367C131.639 18.1258 130.694 17.8704 129.621 17.8704C128.599 17.8704 127.68 18.113 126.862 18.5984C126.07 19.0837 125.445 19.7606 124.985 20.6291C124.551 21.4976 124.334 22.4939 124.334 23.6178C124.334 24.7417 124.551 25.738 124.985 26.6065C125.445 27.475 126.07 28.1519 126.862 28.6372C127.68 29.1226 128.599 29.3652 129.621 29.3652Z" fill="white"/>
<path d="M105.723 34.0781V13.1575H111.087V18.1769L110.704 17.4489C111.164 15.6863 111.917 14.4985 112.965 13.8855C114.038 13.2469 115.302 12.9276 116.758 12.9276H117.984V17.9087H116.183C114.778 17.9087 113.642 18.3429 112.773 19.2114C111.905 20.0544 111.47 21.255 111.47 22.8132V34.0781H105.723Z" fill="white"/>
<path d="M91.7762 34.5379C90.2692 34.5379 88.9665 34.2953 87.8682 33.8099C86.7699 33.3246 85.927 32.6349 85.3395 31.7408C84.752 30.8213 84.4583 29.7356 84.4583 28.484C84.4583 27.3089 84.7265 26.2744 85.2628 25.3803C85.7992 24.4608 86.6166 23.6944 87.7149 23.0814C88.8388 22.4683 90.2309 22.0341 91.8912 21.7786L98.2896 20.7441V24.9589L92.9257 25.9168C92.1083 26.07 91.4825 26.3382 91.0483 26.7214C90.614 27.079 90.3969 27.6027 90.3969 28.2924C90.3969 28.931 90.6396 29.4291 91.1249 29.7867C91.6102 30.1443 92.2105 30.3231 92.9257 30.3231C93.8707 30.3231 94.7009 30.1188 95.4161 29.7101C96.1313 29.3014 96.6804 28.7522 97.0636 28.0625C97.4723 27.3472 97.6766 26.5681 97.6766 25.7252V20.2843C97.6766 19.4924 97.3573 18.8283 96.7188 18.2918C96.1057 17.7554 95.2628 17.4872 94.19 17.4872C93.1683 17.4872 92.2616 17.7682 91.4697 18.3302C90.7034 18.8921 90.1415 19.6329 89.7839 20.5525L85.1862 18.3685C85.5949 17.1934 86.2462 16.1844 87.1402 15.3415C88.0342 14.4985 89.107 13.8472 90.3586 13.3874C91.6102 12.9276 92.9767 12.6977 94.4582 12.6977C96.2207 12.6977 97.7788 13.017 99.1325 13.6556C100.486 14.2942 101.534 15.1882 102.274 16.3377C103.041 17.4617 103.424 18.7772 103.424 20.2843V34.0781H98.0597V30.7063L99.3624 30.4764C98.7494 31.396 98.0725 32.1623 97.3318 32.7754C96.591 33.3629 95.7609 33.7971 94.8414 34.0781C93.9218 34.3847 92.9001 34.5379 91.7762 34.5379Z" fill="white"/>
<path d="M52.6915 34.0781V5.53249H58.4386L69.1283 19.7095H66.4463L76.8294 5.53249H82.5765V34.0781H76.6378V12.0846L79.0133 12.621L68.0172 26.798H67.2509L56.6379 12.621L58.6302 12.0846V34.0781H52.6915Z" fill="white"/>
<path d="M137.38 41.0763C137.067 41.0763 136.777 41.019 136.508 40.9045C136.244 40.79 136.015 40.6314 135.821 40.4289C135.632 40.2219 135.493 39.9818 135.405 39.7088L136.151 39.3851C136.27 39.6669 136.442 39.8893 136.667 40.0523C136.891 40.2109 137.144 40.2901 137.426 40.2901C137.585 40.2901 137.721 40.2659 137.836 40.2175C137.955 40.1646 138.045 40.0941 138.107 40.0061C138.173 39.918 138.206 39.8123 138.206 39.689C138.206 39.5436 138.162 39.4247 138.074 39.3322C137.99 39.2353 137.862 39.1605 137.691 39.1076L136.746 38.8037C136.363 38.6848 136.074 38.5064 135.88 38.2686C135.687 38.0308 135.59 37.7511 135.59 37.4296C135.59 37.1478 135.658 36.8989 135.795 36.6831C135.936 36.4673 136.129 36.3 136.376 36.1811C136.627 36.0577 136.913 35.9961 137.235 35.9961C137.53 35.9961 137.801 36.0489 138.047 36.1546C138.294 36.2559 138.505 36.3991 138.682 36.584C138.862 36.7646 138.996 36.9782 139.085 37.2248L138.345 37.5551C138.248 37.3085 138.102 37.1191 137.909 36.987C137.715 36.8505 137.49 36.7822 137.235 36.7822C137.085 36.7822 136.953 36.8086 136.838 36.8615C136.724 36.9099 136.634 36.9804 136.568 37.0729C136.506 37.161 136.475 37.2667 136.475 37.39C136.475 37.5265 136.519 37.6476 136.607 37.7533C136.695 37.8546 136.83 37.9339 137.01 37.9912L137.915 38.2752C138.307 38.4029 138.6 38.5791 138.794 38.8037C138.992 39.0283 139.091 39.3058 139.091 39.6361C139.091 39.918 139.018 40.1668 138.873 40.3826C138.728 40.5984 138.527 40.768 138.272 40.8913C138.017 41.0146 137.719 41.0763 137.38 41.0763Z" fill="white"/>
<path d="M127.796 40.997V36.0754H131.066V36.8681H128.695V38.1299H130.934V38.9226H128.695V40.2042H131.066V40.997H127.796Z" fill="white"/>
<path d="M121.191 40.997V36.8681H119.916V36.0754H123.351V36.8681H122.096V40.997H121.191Z" fill="black"/>
<path d="M112.183 40.997V36.0754H114.013C114.348 36.0754 114.643 36.137 114.898 36.2603C115.158 36.3792 115.361 36.5554 115.506 36.7888C115.651 37.0178 115.724 37.2975 115.724 37.6278C115.724 37.9669 115.642 38.2554 115.479 38.4932C115.321 38.7311 115.105 38.9072 114.832 39.0217L115.962 40.997H114.944L113.735 38.8368L114.317 39.1803H113.081V40.997H112.183ZM113.081 38.3875H114.026C114.189 38.3875 114.33 38.3567 114.449 38.295C114.568 38.229 114.66 38.1387 114.726 38.0242C114.792 37.9097 114.825 37.7776 114.825 37.6278C114.825 37.4737 114.792 37.3415 114.726 37.2314C114.66 37.1169 114.568 37.0289 114.449 36.9672C114.33 36.9011 114.189 36.8681 114.026 36.8681H113.081V38.3875Z" fill="white"/>
<path d="M104.91 41.0763C104.549 41.0763 104.212 41.0124 103.9 40.8847C103.587 40.757 103.314 40.5786 103.08 40.3496C102.847 40.1206 102.664 39.8519 102.532 39.5436C102.404 39.2309 102.341 38.894 102.341 38.5329C102.341 38.1673 102.404 37.8304 102.532 37.5221C102.66 37.2138 102.84 36.9452 103.074 36.7162C103.307 36.4871 103.58 36.311 103.893 36.1877C104.206 36.0599 104.545 35.9961 104.91 35.9961C105.276 35.9961 105.615 36.0599 105.928 36.1877C106.24 36.3154 106.513 36.4937 106.747 36.7228C106.98 36.9474 107.161 37.2138 107.289 37.5221C107.421 37.8304 107.487 38.1673 107.487 38.5329C107.487 38.894 107.421 39.2309 107.289 39.5436C107.156 39.8519 106.974 40.1206 106.74 40.3496C106.507 40.5786 106.234 40.757 105.921 40.8847C105.613 41.0124 105.276 41.0763 104.91 41.0763ZM104.91 40.2571C105.153 40.2571 105.375 40.2153 105.578 40.1316C105.78 40.0435 105.956 39.9224 106.106 39.7682C106.26 39.6141 106.377 39.4313 106.456 39.2199C106.54 39.0085 106.582 38.7795 106.582 38.5329C106.582 38.2862 106.54 38.0594 106.456 37.8524C106.377 37.641 106.26 37.4583 106.106 37.3041C105.956 37.1456 105.78 37.0244 105.578 36.9408C105.375 36.8571 105.153 36.8153 104.91 36.8153C104.673 36.8153 104.452 36.8571 104.25 36.9408C104.047 37.0244 103.869 37.1456 103.715 37.3041C103.565 37.4583 103.448 37.641 103.364 37.8524C103.281 38.0594 103.239 38.2862 103.239 38.5329C103.239 38.7795 103.281 39.0085 103.364 39.2199C103.448 39.4313 103.565 39.6141 103.715 39.7682C103.869 39.9224 104.047 40.0435 104.25 40.1316C104.452 40.2153 104.673 40.2571 104.91 40.2571Z" fill="white"/>
<path d="M94.3054 40.997V36.0754H96.1419C96.4766 36.0754 96.7717 36.137 97.0271 36.2603C97.287 36.3792 97.4896 36.5554 97.6349 36.7888C97.7802 37.0178 97.8529 37.2975 97.8529 37.6278C97.8529 37.9537 97.778 38.2334 97.6283 38.4668C97.483 38.6958 97.2826 38.872 97.0271 38.9953C96.7717 39.1186 96.4766 39.1803 96.1419 39.1803H95.2038V40.997H94.3054ZM95.2038 38.3875H96.1551C96.3181 38.3875 96.459 38.3567 96.5779 38.295C96.6968 38.229 96.7893 38.1387 96.8554 38.0242C96.9214 37.9097 96.9545 37.7776 96.9545 37.6278C96.9545 37.4737 96.9214 37.3415 96.8554 37.2314C96.7893 37.1169 96.6968 37.0289 96.5779 36.9672C96.459 36.9011 96.3181 36.8681 96.1551 36.8681H95.2038V38.3875Z" fill="white"/>
<path d="M87.8877 41.0763C87.575 41.0763 87.2844 41.019 87.0157 40.9045C86.7515 40.79 86.5225 40.6314 86.3287 40.4289C86.1393 40.2219 86.0006 39.9818 85.9125 39.7088L86.659 39.3851C86.7779 39.6669 86.9497 39.8893 87.1743 40.0523C87.3989 40.2109 87.6521 40.2901 87.934 40.2901C88.0925 40.2901 88.2291 40.2659 88.3436 40.2175C88.4625 40.1646 88.5528 40.0941 88.6144 40.0061C88.6805 39.918 88.7135 39.8123 88.7135 39.689C88.7135 39.5436 88.6695 39.4247 88.5814 39.3322C88.4977 39.2353 88.37 39.1605 88.1982 39.1076L87.2535 38.8037C86.8704 38.6848 86.5819 38.5064 86.3881 38.2686C86.1943 38.0308 86.0975 37.7511 86.0975 37.4296C86.0975 37.1478 86.1657 36.8989 86.3022 36.6831C86.4432 36.4673 86.637 36.3 86.8836 36.1811C87.1346 36.0577 87.4209 35.9961 87.7424 35.9961C88.0375 35.9961 88.3083 36.0489 88.555 36.1546C88.8016 36.2559 89.013 36.3991 89.1892 36.584C89.3697 36.7646 89.5041 36.9782 89.5921 37.2248L88.8522 37.5551C88.7554 37.3085 88.61 37.1191 88.4162 36.987C88.2225 36.8505 87.9978 36.7822 87.7424 36.7822C87.5927 36.7822 87.4605 36.8086 87.346 36.8615C87.2315 36.9099 87.1412 36.9804 87.0752 37.0729C87.0135 37.161 86.9827 37.2667 86.9827 37.39C86.9827 37.5265 87.0267 37.6476 87.1148 37.7533C87.2029 37.8546 87.3372 37.9339 87.5178 37.9912L88.4228 38.2752C88.8148 38.4029 89.1077 38.5791 89.3015 38.8037C89.4997 39.0283 89.5988 39.3058 89.5988 39.6361C89.5988 39.918 89.5261 40.1668 89.3807 40.3826C89.2354 40.5984 89.035 40.768 88.7796 40.8913C88.5241 41.0146 88.2269 41.0763 87.8877 41.0763Z" fill="white"/>
<path d="M77.3365 40.997V36.0754H78.0368L80.7454 39.722L80.382 39.7947V36.0754H81.2805V40.997H80.5736L77.9047 37.3239L78.235 37.2513V40.997H77.3365Z" fill="white"/>
<path d="M68.3334 40.997L70.0312 36.0754H71.1939L72.8917 40.997H71.914L71.5639 39.94H69.6613L69.3046 40.997H68.3334ZM69.9189 39.1473H71.3062L70.4871 36.6963H70.7381L69.9189 39.1473Z" fill="white"/>
<path d="M60.4716 40.997V36.0754H62.3015C62.6362 36.0754 62.9313 36.137 63.1867 36.2603C63.4466 36.3792 63.6492 36.5554 63.7945 36.7888C63.9398 37.0178 64.0125 37.2975 64.0125 37.6278C64.0125 37.9669 63.931 38.2554 63.7681 38.4932C63.6095 38.7311 63.3937 38.9072 63.1207 39.0217L64.2503 40.997H63.233L62.024 38.8368L62.6054 39.1803H61.37V40.997H60.4716ZM61.37 38.3875H62.3147C62.4776 38.3875 62.6186 38.3567 62.7375 38.295C62.8564 38.229 62.9489 38.1387 63.015 38.0242C63.081 37.9097 63.114 37.7776 63.114 37.6278C63.114 37.4737 63.081 37.3415 63.015 37.2314C62.9489 37.1169 62.8564 37.0289 62.7375 36.9672C62.6186 36.9011 62.4776 36.8681 62.3147 36.8681H61.37V38.3875Z" fill="white"/>
<path d="M53.8661 40.997V36.8681H52.5911V36.0754H56.0264V36.8681H54.7712V40.997H53.8661Z" fill="white"/>
<path d="M42.4273 20.4292L23.5707 1.57158C22.7028 0.703675 21.2957 0.703675 20.4279 1.57158L1.57128 20.4292C0.703424 21.2971 0.703425 22.7043 1.57128 23.5722L20.4279 42.4299C21.2957 43.2978 22.7028 43.2978 23.5707 42.4299L42.4273 23.5722C43.2951 22.7043 43.2951 21.2971 42.4273 20.4292Z" fill="#1B8041"/>
<path d="M36.4559 20.7432L23.2563 7.54287C22.562 6.84855 21.4364 6.84855 20.7421 7.54287L7.54247 20.7432C6.84819 21.4376 6.84819 22.5633 7.54247 23.2576L20.7421 36.458C21.4364 37.1523 22.562 37.1523 23.2563 36.458L36.4559 23.2576C37.1502 22.5633 37.1502 21.4376 36.4559 20.7432Z" fill="#F4C400"/>
<path d="M26.4437 32.0005C33.5006 32.0005 39.2214 26.2794 39.2214 19.2221C39.2214 12.1647 33.5006 6.44363 26.4437 6.44363C19.3867 6.44363 13.666 12.1647 13.666 19.2221C13.666 26.2794 19.3867 32.0005 26.4437 32.0005Z" fill="url(#paint0_radial_60_2378)"/>
<path d="M32.2372 14.0335C22.0457 12.5009 13.8784 21.8883 11.0687 26.7736C11.5572 27.28 13.1411 28.8347 15.3117 31.0053C19.4304 19.5105 27.3522 16.2367 32.2372 14.0335Z" fill="white"/>
<defs>
<radialGradient id="paint0_radial_60_2378" cx="0" cy="0" r="1" gradientTransform="matrix(10.8146 18.7326 -18.7315 10.8152 24.491 11.5893)" gradientUnits="userSpaceOnUse">
<stop stop-color="#63B2FF"/>
<stop offset="1" stop-color="#1271CB"/>
</radialGradient>
</defs>
</svg>
