<svg width="1270" height="151" viewBox="0 0 1270 151" fill="none" xmlns="http://www.w3.org/2000/svg">
<path d="M0 149.156V1.34375H45.0156L57.4453 91.459L69.791 1.34375H115.227V149.156H88.1836V42.6641L71.2188 149.156H44.6797L26.707 42.6641V149.156H0ZM124.297 149.156L138.574 1.34375H188.713L202.738 149.156H174.771L172.672 125.305H154.867L153.02 149.156H124.297ZM156.967 101.705H170.404L163.938 26.5391H162.594L156.967 101.705ZM211.809 149.156V1.34375H257.16C264.719 1.34375 270.43 3.07943 274.293 6.55078C278.156 9.96615 280.732 14.7812 282.02 20.9961C283.363 27.1549 284.035 34.4056 284.035 42.748C284.035 50.8105 282.999 57.2493 280.928 62.0645C278.912 66.8796 275.077 70.2109 269.422 72.0586C274.069 73.0104 277.316 75.334 279.164 79.0293C281.068 82.6686 282.02 87.3997 282.02 93.2227V149.156H252.877V91.291C252.877 86.9798 251.981 84.3203 250.189 83.3125C248.454 82.2487 245.626 81.7168 241.707 81.7168V149.156H211.809ZM241.875 56.1016H249.014C253.101 56.1016 255.145 51.6504 255.145 42.748C255.145 36.9811 254.697 33.2018 253.801 31.4102C252.905 29.6185 251.225 28.7227 248.762 28.7227H241.875V56.1016ZM293.777 149.156V1.34375H332.83C341.005 1.34375 347.471 3.16341 352.23 6.80273C357.046 10.4421 360.489 15.6211 362.561 22.3398C364.632 29.0586 365.668 37.0651 365.668 46.3594C365.668 55.3177 364.8 63.1283 363.064 69.791C361.329 76.3978 358.221 81.5208 353.742 85.1602C349.319 88.7995 343.02 90.6191 334.846 90.6191H322.836V149.156H293.777ZM322.836 64.0801H324.516C330.003 64.0801 333.362 62.5404 334.594 59.4609C335.826 56.3815 336.441 51.8464 336.441 45.8555C336.441 40.2565 335.826 35.9453 334.594 32.9219C333.418 29.8424 330.59 28.3027 326.111 28.3027H322.836V64.0801ZM428.068 149.156V29.7305H410.516V1.34375H475.184V29.7305H457.631V149.156H428.068ZM483.414 149.156V1.34375H528.766C536.324 1.34375 542.035 3.07943 545.898 6.55078C549.762 9.96615 552.337 14.7812 553.625 20.9961C554.969 27.1549 555.641 34.4056 555.641 42.748C555.641 50.8105 554.605 57.2493 552.533 62.0645C550.518 66.8796 546.682 70.2109 541.027 72.0586C545.674 73.0104 548.922 75.334 550.77 79.0293C552.673 82.6686 553.625 87.3997 553.625 93.2227V149.156H524.482V91.291C524.482 86.9798 523.587 84.3203 521.795 83.3125C520.059 82.2487 517.232 81.7168 513.312 81.7168V149.156H483.414ZM513.48 56.1016H520.619C524.706 56.1016 526.75 51.6504 526.75 42.748C526.75 36.9811 526.302 33.2018 525.406 31.4102C524.51 29.6185 522.831 28.7227 520.367 28.7227H513.48V56.1016ZM561.352 149.156L575.629 1.34375H625.768L639.793 149.156H611.826L609.727 125.305H591.922L590.074 149.156H561.352ZM594.021 101.705H607.459L600.992 26.5391H599.648L594.021 101.705ZM648.863 149.156V1.34375H679.266L692.871 72.1426V1.34375H721.426V149.156H692.535L677.754 75.25V149.156H648.863ZM769.633 150.5C756.139 150.5 746.397 147.141 740.406 140.422C734.471 133.703 731.504 123.009 731.504 108.34V93.8945H760.73V112.371C760.73 115.786 761.234 118.474 762.242 120.434C763.306 122.337 765.126 123.289 767.701 123.289C770.389 123.289 772.236 122.505 773.244 120.938C774.308 119.37 774.84 116.794 774.84 113.211C774.84 108.676 774.392 104.896 773.496 101.873C772.6 98.7936 771.033 95.8822 768.793 93.1387C766.609 90.3392 763.558 87.0918 759.639 83.3965L746.369 70.7988C736.459 61.4486 731.504 50.7546 731.504 38.7168C731.504 26.1191 734.415 16.5169 740.238 9.91016C746.117 3.30339 754.6 0 765.686 0C779.235 0 788.837 3.61133 794.492 10.834C800.203 18.0566 803.059 29.0306 803.059 43.7559H772.992V33.5938C772.992 31.5781 772.404 30.0104 771.229 28.8906C770.109 27.7708 768.569 27.2109 766.609 27.2109C764.258 27.2109 762.522 27.8828 761.402 29.2266C760.339 30.5143 759.807 32.194 759.807 34.2656C759.807 36.3372 760.367 38.5768 761.486 40.9844C762.606 43.3919 764.818 46.1634 768.121 49.2988L785.17 65.6758C788.585 68.9232 791.721 72.3665 794.576 76.0059C797.432 79.5892 799.727 83.7884 801.463 88.6035C803.199 93.3626 804.066 99.1855 804.066 106.072C804.066 119.958 801.491 130.848 796.34 138.742C791.245 146.581 782.342 150.5 769.633 150.5ZM813.977 149.156V1.34375H853.029C861.204 1.34375 867.671 3.16341 872.43 6.80273C877.245 10.4421 880.688 15.6211 882.76 22.3398C884.831 29.0586 885.867 37.0651 885.867 46.3594C885.867 55.3177 884.999 63.1283 883.264 69.791C881.528 76.3978 878.421 81.5208 873.941 85.1602C869.518 88.7995 863.219 90.6191 855.045 90.6191H843.035V149.156H813.977ZM843.035 64.0801H844.715C850.202 64.0801 853.561 62.5404 854.793 59.4609C856.025 56.3815 856.641 51.8464 856.641 45.8555C856.641 40.2565 856.025 35.9453 854.793 32.9219C853.617 29.8424 850.79 28.3027 846.311 28.3027H843.035V64.0801ZM930.547 150.5C918.733 150.5 909.691 146.945 903.42 139.834C897.205 132.667 894.098 122.337 894.098 108.844V38.6328C894.098 25.9792 897.177 16.377 903.336 9.82617C909.551 3.27539 918.621 0 930.547 0C942.473 0 951.515 3.27539 957.674 9.82617C963.889 16.377 966.996 25.9792 966.996 38.6328V108.844C966.996 122.337 963.861 132.667 957.59 139.834C951.375 146.945 942.361 150.5 930.547 150.5ZM930.799 123.289C935.278 123.289 937.518 118.95 937.518 110.271V38.1289C937.518 30.8503 935.334 27.2109 930.967 27.2109C926.04 27.2109 923.576 30.9342 923.576 38.3809V110.439C923.576 115.031 924.136 118.334 925.256 120.35C926.376 122.309 928.223 123.289 930.799 123.289ZM978.922 149.156V1.34375H1024.27C1031.83 1.34375 1037.54 3.07943 1041.41 6.55078C1045.27 9.96615 1047.85 14.7812 1049.13 20.9961C1050.48 27.1549 1051.15 34.4056 1051.15 42.748C1051.15 50.8105 1050.11 57.2493 1048.04 62.0645C1046.03 66.8796 1042.19 70.2109 1036.54 72.0586C1041.18 73.0104 1044.43 75.334 1046.28 79.0293C1048.18 82.6686 1049.13 87.3997 1049.13 93.2227V149.156H1019.99V91.291C1019.99 86.9798 1019.09 84.3203 1017.3 83.3125C1015.57 82.2487 1012.74 81.7168 1008.82 81.7168V149.156H978.922ZM1008.99 56.1016H1016.13C1020.21 56.1016 1022.26 51.6504 1022.26 42.748C1022.26 36.9811 1021.81 33.2018 1020.91 31.4102C1020.02 29.6185 1018.34 28.7227 1015.88 28.7227H1008.99V56.1016ZM1073.57 149.156V29.7305H1056.02V1.34375H1120.69V29.7305H1103.13V149.156H1073.57ZM1128.92 149.156V1.34375H1188.04V29.8984H1158.98V58.7051H1186.87V86.5039H1158.98V120.35H1189.97V149.156H1128.92ZM1234.91 150.5C1221.41 150.5 1211.67 147.141 1205.68 140.422C1199.74 133.703 1196.78 123.009 1196.78 108.34V93.8945H1226V112.371C1226 115.786 1226.51 118.474 1227.52 120.434C1228.58 122.337 1230.4 123.289 1232.97 123.289C1235.66 123.289 1237.51 122.505 1238.52 120.938C1239.58 119.37 1240.11 116.794 1240.11 113.211C1240.11 108.676 1239.67 104.896 1238.77 101.873C1237.87 98.7936 1236.31 95.8822 1234.07 93.1387C1231.88 90.3392 1228.83 87.0918 1224.91 83.3965L1211.64 70.7988C1201.73 61.4486 1196.78 50.7546 1196.78 38.7168C1196.78 26.1191 1199.69 16.5169 1205.51 9.91016C1211.39 3.30339 1219.87 0 1230.96 0C1244.51 0 1254.11 3.61133 1259.77 10.834C1265.48 18.0566 1268.33 29.0306 1268.33 43.7559H1238.27V33.5938C1238.27 31.5781 1237.68 30.0104 1236.5 28.8906C1235.38 27.7708 1233.84 27.2109 1231.88 27.2109C1229.53 27.2109 1227.8 27.8828 1226.68 29.2266C1225.61 30.5143 1225.08 32.194 1225.08 34.2656C1225.08 36.3372 1225.64 38.5768 1226.76 40.9844C1227.88 43.3919 1230.09 46.1634 1233.39 49.2988L1250.44 65.6758C1253.86 68.9232 1256.99 72.3665 1259.85 76.0059C1262.71 79.5892 1265 83.7884 1266.74 88.6035C1268.47 93.3626 1269.34 99.1855 1269.34 106.072C1269.34 119.958 1266.76 130.848 1261.61 138.742C1256.52 146.581 1247.62 150.5 1234.91 150.5Z" fill="white"/>
</svg>
