<svg width="24" height="24" viewBox="0 0 24 24" fill="none" xmlns="http://www.w3.org/2000/svg">
<path d="M10.9998 1.99973C11.2637 1.99973 11.5248 2.01357 11.783 2.03587C11.4422 2.63436 11.2018 3.29725 11.0838 4.00169C11.0558 4.00136 11.0278 3.99974 10.9998 3.99974C7.13239 3.99974 3.99997 7.13242 3.99976 10.9998C3.99976 14.8673 7.13226 17.9998 10.9998 17.9998C12.8954 17.9998 14.6146 17.2469 15.8748 16.0242L16.0242 15.8748C17.2468 14.6146 17.9998 12.8952 17.9998 10.9998C17.9998 10.9715 17.9972 10.943 17.9969 10.9148C18.7016 10.7969 19.364 10.5564 19.9627 10.2156C19.985 10.474 19.9998 10.7356 19.9998 10.9998C19.9998 13.1236 19.263 15.0771 18.031 16.617L22.3133 20.8992L20.8992 22.3133L16.617 18.031C15.0771 19.2631 13.1238 19.9998 10.9998 19.9998C6.03176 19.9998 1.99976 15.9678 1.99976 10.9998C1.99997 6.03191 6.03189 1.99973 10.9998 1.99973ZM16.5291 1.31907C16.7057 0.893283 17.294 0.893271 17.4705 1.31907L17.7234 1.9304C18.1554 2.97319 18.9614 3.80591 19.9744 4.25657L20.6922 4.57591C21.1024 4.75873 21.1024 5.35593 20.6922 5.5388L19.9324 5.87669C18.9447 6.31597 18.1532 7.1192 17.7137 8.12767L17.4666 8.69311C17.2862 9.10724 16.7135 9.10724 16.533 8.69311L16.2869 8.12767C15.8474 7.11904 15.055 6.31602 14.0672 5.87669L13.3074 5.5388C12.8972 5.35594 12.8972 4.75872 13.3074 4.57591L14.0252 4.25657C15.0383 3.80591 15.8443 2.97321 16.2762 1.9304L16.5291 1.31907Z" fill="black"/>
</svg>
