<svg width="24" height="24" viewBox="0 0 24 24" fill="none" xmlns="http://www.w3.org/2000/svg">
<path d="M4 21.9996C4 17.5813 7.58172 13.9996 12 13.9996C16.4183 13.9996 20 17.5813 20 21.9996H18C18 18.6859 15.3137 15.9996 12 15.9996C8.68629 15.9996 6 18.6859 6 21.9996H4ZM12 12.9996C8.685 12.9996 6 10.3146 6 6.9996C6 3.6846 8.685 0.999603 12 0.999603C15.315 0.999603 18 3.6846 18 6.9996C18 10.3146 15.315 12.9996 12 12.9996ZM12 10.9996C14.21 10.9996 16 9.2096 16 6.9996C16 4.7896 14.21 2.9996 12 2.9996C9.79 2.9996 8 4.7896 8 6.9996C8 9.2096 9.79 10.9996 12 10.9996Z" fill="#5B5D69"/>
</svg>
